<!DOCTYPE svg PUBLIC "-//W3C//DTD SVG 1.1//EN" "http://www.w3.org/Graphics/SVG/1.1/DTD/svg11.dtd">
<!-- Uploaded to: SVG Repo, www.svgrepo.com, Transformed by: SVG Repo Mixer Tools -->
<svg width="800px" height="800px" viewBox="0 0 24 24" xmlns="http://www.w3.org/2000/svg" fill="#000000">
<g id="SVGRepo_bgCarrier" stroke-width="0"/>
<g id="SVGRepo_tracerCarrier" stroke-linecap="round" stroke-linejoin="round"/>
<g id="SVGRepo_iconCarrier"> <path fill="none" stroke="#ffffff" stroke-width="2" d="M7,11 L7,6 C7,3 9,1 12,1 C15,1 17,3 17,6 L17,11 M12,23 C15.8659932,23 19,19.8659932 19,16 C19,12.1340068 15.8659932,9 12,9 C8.13400675,9 5,12.1340068 5,16 C5,19.8659932 8.13400675,23 12,23 Z M12,15 L12,19 M12,16 C12.5522847,16 13,15.5522847 13,15 C13,14.4477153 12.5522847,14 12,14 C11.4477153,14 11,14.4477153 11,15 C11,15.5522847 11.4477153,16 12,16 Z"/> </g>
</svg>